<svg xmlns="http://www.w3.org/2000/svg" version="1.1" xmlns:xlink="http://www.w3.org/1999/xlink" xmlns:svgjs="http://svgjs.dev/svgjs" width="1500" height="1500" viewBox="0 0 1500 1500"><rect width="1500" height="1500" fill="#000000"></rect><g transform="matrix(0.6666666666666666,0,0,0.6666666666666666,249.39393939393938,415.41453682372554)"><svg viewBox="0 0 396 265" data-background-color="#575c5f" preserveAspectRatio="xMidYMid meet" height="1003" width="1500" xmlns="http://www.w3.org/2000/svg" xmlns:xlink="http://www.w3.org/1999/xlink"><g id="tight-bounds" transform="matrix(1,0,0,1,0.2400000000000091,0.09992184702804252)"><svg viewBox="0 0 395.52 201.87466256880023" height="201.87466256880023" width="395.52"><g><svg viewBox="0 0 395.52 201.87466256880023" height="201.87466256880023" width="395.52"><g><svg viewBox="0 0 395.52 201.87466256880023" height="201.87466256880023" width="395.52"><g id="textblocktransform"><svg viewBox="0 0 395.52 201.87466256880023" height="201.87466256880023" width="395.52" id="textblock"><g><rect width="395.52" height="181.96342628275397" fill="none" stroke-width="8.962371322224001" stroke="#ffffff" data-fill-palette-color="none" data-stroke-palette-color="tertiary"></rect><rect width="395.52" height="82.83673002318996" y="181.96342628275397" fill="#ffffff" data-fill-palette-color="tertiary"></rect></g><g><svg viewBox="0 0 395.52 180.96342628275397" height="180.96342628275397" width="395.52"><g transform="matrix(1,0,0,1,23.461705032,23.461705032)"><svg width="348.596589936" viewBox="1.4 -36 112.99 43.45" height="134.04001621875398" data-palette-color="#dedad7"><path d="M15 0.6L15 0.6Q10.75 0.6 7.7-1.65 4.65-3.9 3.03-7.98 1.4-12.05 1.4-17.5L1.4-17.5Q1.4-22.95 3.03-27.03 4.65-31.1 7.7-33.35 10.75-35.6 15-35.6L15-35.6Q19.25-35.6 22.3-33.35 25.35-31.1 26.98-27.03 28.6-22.95 28.6-17.5L28.6-17.5Q28.6-11.25 26.45-6.83 24.3-2.4 20.45-0.55L20.45-0.55 27.95 7.45 22.45 7.45 16.05 0.55Q15.5 0.6 15 0.6ZM15-3.35L15-3.35Q19.15-3.35 21.73-7.05 24.3-10.75 24.3-17.5L24.3-17.5Q24.3-24.25 21.73-27.95 19.15-31.65 15-31.65L15-31.65Q10.8-31.65 8.25-27.95 5.7-24.25 5.7-17.5L5.7-17.5Q5.7-10.75 8.25-7.05 10.8-3.35 15-3.35ZM39.75 0L35.55 0 35.55-36 39.75-36 39.75-14.3 50.1-24.8 55.45-24.8 44.4-13.75 44.4-13.45 56.8 0 51.6 0 39.75-12.9 39.75 0ZM74.7-29.2L74.7-29.2Q73.2-29.2 72.2-30.2 71.2-31.2 71.2-32.6L71.2-32.6Q71.2-34.05 72.2-35.02 73.2-36 74.7-36L74.7-36Q76.15-36 77.17-35.02 78.2-34.05 78.2-32.6L78.2-32.6Q78.2-31.2 77.17-30.2 76.15-29.2 74.7-29.2ZM85 0L65 0 65-3.6 72.9-3.6 72.9-19.95Q72.9-21.2 71.65-21.2L71.65-21.2 65.84-21.2 65.84-24.8 72.65-24.8Q77.09-24.8 77.09-20.35L77.09-20.35 77.09-3.6 85-3.6 85 0ZM114.39 0L107.59 0Q104.19 0 102.24-1.65 100.29-3.3 100.29-7.6L100.29-7.6 100.29-21.2 93.99-21.2 93.99-24.8 97.74-24.8Q100.29-24.8 100.69-27.3L100.69-27.3 101.39-31.15 104.49-31.15 104.49-24.8 114.39-24.8 114.39-21.2 104.49-21.2 104.49-7.6Q104.49-5.5 105.47-4.65 106.44-3.8 108.84-3.8L108.84-3.8 114.39-3.8 114.39 0Z" opacity="1" transform="matrix(1,0,0,1,0,0)" fill="#ffffff" class="wordmark-text-0" data-fill-palette-color="primary" id="text-0"></path></svg></g></svg></g><g transform="matrix(1,0,0,1,75.54432,180.96342628275397)"><svg viewBox="0 0 244.43135999999998 20.911236286046265" height="20.911236286046265" width="244.43135999999998"><g transform="matrix(1,0,0,1,20,3.2)"><svg width="204.43135999999998" viewBox="3.65 -32.5 473.33000000000004 33.6" height="14.511236286046264" data-palette-color="#575c5f"><path d="M45.5 0L3.65 0 3.65-2.15 9.65-2.15Q11.9-2.15 13.48-3.38 15.05-4.6 15.05-7.6L15.05-7.6 15.05-24.85Q15.05-27.1 13.48-28.73 11.9-30.35 9.65-30.35L9.65-30.35 3.65-30.35 3.65-32.5 60.4-32.5 60.4-23.15 59-23.15Q57.85-24.35 56.48-25.63 55.1-26.9 53.05-27.95 51-29 47.9-29.65 44.8-30.3 40.2-30.3L40.2-30.3Q37.55-30.3 36.08-28.93 34.6-27.55 34.6-25.4L34.6-25.4 34.6-23.7Q34.6-22.7 34.88-21.5 35.15-20.3 36.08-19.45 37-18.6 38.95-18.6L38.95-18.6Q42.2-18.6 44.5-19.95 46.8-21.3 48.05-23.15L48.05-23.15 49.9-23.15 49.9-10.65 48.05-10.65Q46.8-13.55 44.5-14.6 42.2-15.65 38.95-15.65L38.95-15.65Q37.25-15.65 36.3-14.98 35.35-14.3 34.98-13.28 34.6-12.25 34.6-11.15L34.6-11.15 34.6-7.35Q34.6-5.05 35.2-3.93 35.8-2.8 37.1-2.48 38.4-2.15 40.5-2.15L40.5-2.15 45.5-2.15 45.5 0ZM18.45-30.35L18.45-2.15 21.7-2.15 21.7-30.35 18.45-30.35ZM79.85 0L61.05 0 61.05-2.15Q63.1-2.15 64.57-2.68 66.05-3.2 67.02-3.85 68-4.5 68.47-5.03 68.95-5.55 68.95-5.55L68.95-5.55 81.65-21.8 80.25-23.55Q79.7-24.25 79.15-24.73 78.6-25.2 77.7-25.48 76.8-25.75 75.1-25.75L75.1-25.75 71.6-25.75 71.6-27.9 96.15-27.9 116.85-2.15 121.8-2.15 121.8 0 89.6 0 89.6-2.15 92.9-2.15Q93.9-2.15 94.57-2.58 95.25-3 95.25-3.8L95.25-3.8Q95.25-4.9 94.1-6.35L94.1-6.35 92.55-8.3 73.85-8.3Q72.7-6.35 72.7-4.9L72.7-4.9Q72.7-3.6 73.57-2.88 74.45-2.15 75.75-2.15L75.75-2.15 79.85-2.15 79.85 0ZM82.9-25.75L101.95-2.15 104.95-2.15 85.95-25.75 82.9-25.75ZM83.05-20.15L75.45-10.35 90.9-10.35 83.05-20.15ZM151.4 1.1L151.4 1.1Q146.85 1.1 143.12 0.7 139.4 0.3 136.05-0.48 132.7-1.25 129.25-2.25L129.25-2.25 128.09 0.2 125.85 0.2 125.85-12 128.09-12Q128.75-10.5 130.9-8.6 133.05-6.7 136.27-4.95 139.5-3.2 143.37-2.08 147.25-0.95 151.35-0.95L151.35-0.95Q152.95-0.95 154.55-1.1 156.15-1.25 157.2-1.68 158.25-2.1 158.25-2.9L158.25-2.9Q158.25-3.75 156.87-4.48 155.5-5.2 153.2-5.83 150.9-6.45 148.02-7.1 145.15-7.75 142.07-8.53 139-9.3 136.12-10.25 133.25-11.2 130.95-12.43 128.65-13.65 127.27-15.28 125.9-16.9 125.9-18.95L125.9-18.95Q125.9-21.9 127.2-23.78 128.5-25.65 130.62-26.7 132.75-27.75 135.34-28.23 137.95-28.7 140.57-28.8 143.2-28.9 145.4-28.9L145.4-28.9Q152.35-28.9 157.67-27.95 163-27 167.15-25.9L167.15-25.9Q167.3-26.6 167.52-27.13 167.75-27.65 167.9-28.05L167.9-28.05 170.15-28.05 170.15-18.5 167.95-18.5Q166.1-20.3 163.25-21.85 160.4-23.4 157.17-24.53 153.95-25.65 150.92-26.28 147.9-26.9 145.65-26.9L145.65-26.9Q143.5-26.9 141.97-26.4 140.45-25.9 140.45-24.4L140.45-24.4Q140.45-23.35 141.77-22.68 143.1-22 145.32-21.5 147.55-21 150.32-20.55 153.1-20.1 156.07-19.55 159.05-19 161.82-18.18 164.6-17.35 166.82-16.13 169.05-14.9 170.37-13.1 171.7-11.3 171.7-8.75L171.7-8.75Q171.7-5.25 169.2-3.08 166.7-0.9 162.15 0.1 157.6 1.1 151.4 1.1ZM163.1-3.6L163.1-3.6Q163.1-3.7 163.22-3.73 163.35-3.75 163.35-3.85L163.35-3.85Q163.35-6 161.95-7.3 160.55-8.6 158.15-9.4 155.75-10.2 152.72-10.83 149.7-11.45 146.45-12.2L146.45-12.2Q143.35-12.9 140.37-13.85 137.4-14.8 135.02-16.03 132.65-17.25 131.22-18.75 129.8-20.25 129.75-22.1L129.75-22.1 129.4-22.1Q129.05-21.45 128.9-20.8 128.75-20.15 128.75-19.55L128.75-19.55Q128.75-17.25 131.2-15.43 133.65-13.6 138.65-11.98 143.65-10.35 151.35-8.55L151.35-8.55Q154.5-7.85 156.67-7.23 158.85-6.6 160.37-5.8 161.9-5 163.1-3.6ZM218.54 0L182.14 0 182.14-2.15 187.44-2.15Q189.29-2.15 190.59-3.15 191.89-4.15 191.89-6.6L191.89-6.6 191.89-23.8Q191.89-24.65 191.57-25.2 191.24-25.75 190.49-25.75L190.49-25.75Q189.69-25.75 188.47-24.73 187.24-23.7 185.89-22.18 184.54-20.65 183.34-19.1 182.14-17.55 181.39-16.53 180.64-15.5 180.64-15.5L180.64-15.5 178.84-15.5 179.54-27.9 221.14-27.9 221.84-15.5 220.04-15.5Q220.04-15.5 219.29-16.53 218.54-17.55 217.34-19.1 216.14-20.65 214.79-22.18 213.44-23.7 212.22-24.73 210.99-25.75 210.24-25.75L210.24-25.75Q209.44-25.75 209.09-25.2 208.74-24.65 208.74-23.8L208.74-23.8 208.74-6.6Q208.74-4.15 210.07-3.15 211.39-2.15 213.24-2.15L213.24-2.15 218.54-2.15 218.54 0ZM195.04-25.75L195.04-2.15 197.49-2.15 197.49-25.75 195.04-25.75ZM286.29 0L250.44 0 250.44-2.15 255.69-2.15Q257.54-2.15 258.84-3.15 260.14-4.15 260.14-6.6L260.14-6.6 260.14-21.25Q260.14-23.1 258.84-24.43 257.54-25.75 255.69-25.75L255.69-25.75 250.44-25.75 250.44-27.9 298.94-27.9 298.94-19.65 297.59-19.65Q296.74-20.7 295.59-21.78 294.44-22.85 292.66-23.75 290.89-24.65 288.21-25.2 285.54-25.75 281.64-25.75L281.64-25.75Q279.49-25.75 278.26-24.63 277.04-23.5 277.04-21.75L277.04-21.75 277.04-19.7Q277.04-18.4 277.76-17.23 278.49-16.05 280.59-16.05L280.59-16.05Q283.29-16.05 285.26-17.23 287.24-18.4 288.29-19.95L288.29-19.95 290.09-19.95 290.09-9.05 288.24-9.05Q287.19-11.55 285.24-12.43 283.29-13.3 280.59-13.3L280.59-13.3Q278.49-13.3 277.76-12.15 277.04-11 277.04-9.65L277.04-9.65 277.04-6.35Q277.04-4.05 277.79-3.1 278.54-2.15 280.44-2.15L280.44-2.15 286.29-2.15 286.29 0ZM263.29-25.75L263.29-2.15 265.79-2.15 265.79-25.75 263.29-25.75ZM328.89 1.1L328.89 1.1Q323.19 1.1 318.21-0.08 313.24-1.25 309.46-3.33 305.69-5.4 303.54-8.13 301.39-10.85 301.39-14L301.39-14Q301.39-17.1 303.31-19.83 305.24-22.55 308.84-24.6 312.44-26.65 317.51-27.83 322.59-29 328.89-29L328.89-29Q335.19-29 340.26-27.83 345.34-26.65 348.91-24.6 352.49-22.55 354.41-19.83 356.34-17.1 356.34-14L356.34-14Q356.34-10.85 354.21-8.13 352.09-5.4 348.31-3.33 344.54-1.25 339.56-0.08 334.59 1.1 328.89 1.1ZM319.49-1.1L319.49-1.1 319.59-1.45Q315.89-2.45 312.99-4.25 310.09-6.05 308.44-8.53 306.79-11 306.79-13.95L306.79-13.95Q306.79-17 308.44-19.45 310.09-21.9 312.99-23.7 315.89-25.5 319.64-26.5L319.64-26.5 319.54-26.8Q314.84-25.85 311.19-24 307.54-22.15 305.46-19.63 303.39-17.1 303.39-14L303.39-14Q303.39-10.9 305.46-8.35 307.54-5.8 311.16-3.95 314.79-2.1 319.49-1.1ZM328.89-1.05L328.89-1.05Q333.14-1.05 335.49-4.3 337.84-7.55 337.84-13.9L337.84-13.9Q337.84-18.15 337.06-21.03 336.29-23.9 334.36-25.35 332.44-26.8 328.89-26.8L328.89-26.8Q325.39-26.8 323.44-25.35 321.49-23.9 320.71-21.03 319.94-18.15 319.94-13.9L319.94-13.9Q319.94-7.55 322.29-4.3 324.64-1.05 328.89-1.05ZM338.59-1.9L338.79-1.75Q341.39-3.95 342.91-7.13 344.44-10.3 344.44-14L344.44-14Q344.44-17.65 342.94-20.8 341.44-23.95 338.84-26.15L338.84-26.15 338.64-26Q339.74-23.25 340.36-20.23 340.99-17.2 340.99-13.95L340.99-13.95Q340.99-10.75 340.36-7.73 339.74-4.7 338.59-1.9L338.59-1.9ZM386.08 1.1L386.08 1.1Q380.38 1.1 375.41-0.08 370.43-1.25 366.66-3.33 362.88-5.4 360.73-8.13 358.58-10.85 358.58-14L358.58-14Q358.58-17.1 360.51-19.83 362.43-22.55 366.03-24.6 369.63-26.65 374.71-27.83 379.78-29 386.08-29L386.08-29Q392.38-29 397.46-27.83 402.53-26.65 406.11-24.6 409.68-22.55 411.61-19.83 413.53-17.1 413.53-14L413.53-14Q413.53-10.85 411.41-8.13 409.28-5.4 405.51-3.33 401.73-1.25 396.76-0.08 391.78 1.1 386.08 1.1ZM376.68-1.1L376.68-1.1 376.78-1.45Q373.08-2.45 370.18-4.25 367.28-6.05 365.63-8.53 363.98-11 363.98-13.95L363.98-13.95Q363.98-17 365.63-19.45 367.28-21.9 370.18-23.7 373.08-25.5 376.83-26.5L376.83-26.5 376.73-26.8Q372.03-25.85 368.38-24 364.73-22.15 362.66-19.63 360.58-17.1 360.58-14L360.58-14Q360.58-10.9 362.66-8.35 364.73-5.8 368.36-3.95 371.98-2.1 376.68-1.1ZM386.08-1.05L386.08-1.05Q390.33-1.05 392.68-4.3 395.03-7.55 395.03-13.9L395.03-13.9Q395.03-18.15 394.26-21.03 393.48-23.9 391.56-25.35 389.63-26.8 386.08-26.8L386.08-26.8Q382.58-26.8 380.63-25.35 378.68-23.9 377.91-21.03 377.13-18.15 377.13-13.9L377.13-13.9Q377.13-7.55 379.48-4.3 381.83-1.05 386.08-1.05ZM395.78-1.9L395.98-1.75Q398.58-3.95 400.11-7.13 401.63-10.3 401.63-14L401.63-14Q401.63-17.65 400.13-20.8 398.63-23.95 396.03-26.15L396.03-26.15 395.83-26Q396.93-23.25 397.56-20.23 398.18-17.2 398.18-13.95L398.18-13.95Q398.18-10.75 397.56-7.73 396.93-4.7 395.78-1.9L395.78-1.9ZM454.63 0L418.18 0 418.18-2.15 423.43-2.15Q425.28-2.15 426.61-3.15 427.93-4.15 427.93-6.6L427.93-6.6 427.93-21.3Q427.93-23.1 426.61-24.43 425.28-25.75 423.43-25.75L423.43-25.75 418.18-25.75 418.18-27.9 450.78-27.9Q455.68-27.9 460.36-27.18 465.03-26.45 468.78-24.88 472.53-23.3 474.75-20.75 476.98-18.2 476.98-14.5L476.98-14.5Q476.98-10.9 475.46-8.38 473.93-5.85 471.43-4.2 468.93-2.55 465.93-1.65 462.93-0.75 459.98-0.38 457.03 0 454.63 0L454.63 0ZM431.08-25.75L431.08-2.1 433.53-2.1 433.53-25.75 431.08-25.75ZM448.18-2.15L448.18-2.15 452.03-2.15Q454.63-2.15 456.13-3.85 457.63-5.55 458.31-8.25 458.98-10.95 458.98-13.9L458.98-13.9Q458.98-17.25 458.16-19.93 457.33-22.6 455.28-24.18 453.23-25.75 449.63-25.75L449.63-25.75Q447.33-25.75 446.03-24.65 444.73-23.55 444.73-21.75L444.73-21.75 444.73-6.3Q444.73-4.45 445.48-3.3 446.23-2.15 448.18-2.15ZM459.48-2.6L459.68-2.45Q462.83-4.2 464.5-7.3 466.18-10.4 466.18-13.9L466.18-13.9Q466.18-17.4 464.5-20.5 462.83-23.6 459.68-25.35L459.68-25.35 459.48-25.2Q461.23-22.95 462.13-19.98 463.03-17 463.03-13.9L463.03-13.9Q463.03-10.8 462.13-7.83 461.23-4.85 459.48-2.6L459.48-2.6Z" opacity="1" transform="matrix(1,0,0,1,0,0)" fill="#000000" class="slogan-text-1" data-fill-palette-color="quaternary" id="text-1"></path></svg></g></svg></g></svg></g></svg></g></svg></g><defs></defs></svg><rect width="395.52" height="201.87466256880023" fill="none" stroke="none" visibility="hidden"></rect></g></svg></g></svg>